<svg xmlns="http://www.w3.org/2000/svg"
        width="900" height="300" viewBox="0 0 900 300"
        role="img" aria-label="Weekly AI coding token usage">
      <style>
        .title { fill: #f0f6fc; font: 600 18px -apple-system, BlinkMacSystemFont, "Segoe UI", sans-serif; }
        .subtitle { fill: #8b949e; font: 13px -apple-system, BlinkMacSystemFont, "Segoe UI", sans-serif; }
        .axis { fill: #8b949e; font: 11px -apple-system, BlinkMacSystemFont, "Segoe UI", sans-serif; }
      </style>
      <rect width="100%" height="100%" rx="12" fill="#0d1117" />
      <text x="64" y="24" class="title">AI coding tokens — last 12 weeks</text>
      <text x="64" y="48" class="subtitle">Codex / Claude combined</text>
      <line x1="64" y1="244.0" x2="876" y2="244.0" stroke="#30363d" stroke-width="1" /><text x="54" y="248.0" text-anchor="end" class="axis">0</text><line x1="64" y1="139.0" x2="876" y2="139.0" stroke="#30363d" stroke-width="1" /><text x="54" y="143.0" text-anchor="end" class="axis">197.5M</text><line x1="64" y1="34.0" x2="876" y2="34.0" stroke="#30363d" stroke-width="1" /><text x="54" y="38.0" text-anchor="end" class="axis">395.1M</text>
      <polyline points="64.0,244.0 137.8,244.0 211.6,244.0 285.5,244.0 359.3,244.0 433.1,244.0 506.9,244.0 580.7,244.0 654.5,244.0 728.4,244.0 802.2,34.0 876.0,45.1" fill="none" stroke="#58a6ff"
        stroke-width="3" stroke-linecap="round" stroke-linejoin="round" />
      <circle cx="64.0" cy="244.0" r="4.5" fill="#58a6ff" stroke="#0d1117" stroke-width="2" /><circle cx="137.8" cy="244.0" r="4.5" fill="#58a6ff" stroke="#0d1117" stroke-width="2" /><circle cx="211.6" cy="244.0" r="4.5" fill="#58a6ff" stroke="#0d1117" stroke-width="2" /><circle cx="285.5" cy="244.0" r="4.5" fill="#58a6ff" stroke="#0d1117" stroke-width="2" /><circle cx="359.3" cy="244.0" r="4.5" fill="#58a6ff" stroke="#0d1117" stroke-width="2" /><circle cx="433.1" cy="244.0" r="4.5" fill="#58a6ff" stroke="#0d1117" stroke-width="2" /><circle cx="506.9" cy="244.0" r="4.5" fill="#58a6ff" stroke="#0d1117" stroke-width="2" /><circle cx="580.7" cy="244.0" r="4.5" fill="#58a6ff" stroke="#0d1117" stroke-width="2" /><circle cx="654.5" cy="244.0" r="4.5" fill="#58a6ff" stroke="#0d1117" stroke-width="2" /><circle cx="728.4" cy="244.0" r="4.5" fill="#58a6ff" stroke="#0d1117" stroke-width="2" /><circle cx="802.2" cy="34.0" r="4.5" fill="#58a6ff" stroke="#0d1117" stroke-width="2" /><circle cx="876.0" cy="45.1" r="4.5" fill="#58a6ff" stroke="#0d1117" stroke-width="2" />
      <text x="64.0" y="278" text-anchor="middle" class="axis">05/04</text><text x="137.8" y="278" text-anchor="middle" class="axis">05/11</text><text x="211.6" y="278" text-anchor="middle" class="axis">05/18</text><text x="285.5" y="278" text-anchor="middle" class="axis">05/25</text><text x="359.3" y="278" text-anchor="middle" class="axis">06/01</text><text x="433.1" y="278" text-anchor="middle" class="axis">06/08</text><text x="506.9" y="278" text-anchor="middle" class="axis">06/15</text><text x="580.7" y="278" text-anchor="middle" class="axis">06/22</text><text x="654.5" y="278" text-anchor="middle" class="axis">06/29</text><text x="728.4" y="278" text-anchor="middle" class="axis">07/06</text><text x="802.2" y="278" text-anchor="middle" class="axis">07/13</text><text x="876.0" y="278" text-anchor="middle" class="axis">07/20</text>
    </svg>
    